<svg xmlns="http://www.w3.org/2000/svg" style="display: none;">

    <symbol id="tfr-icon-amazon" viewBox="0 0 512 512">
      <path d="m443 422c3-1 5-2 8-1 2 0 3 2 3 5 0 3-2 6-5 9-2 3-6 8-12 13-6 5-15 12-27 19-13 8-26 15-41 21-14 7-32 12-53 17-22 5-44 7-66 7-23 0-45-3-68-9-23-6-43-13-60-22-17-8-33-18-49-29-16-12-28-22-38-30-9-9-17-18-24-25-1-2-2-4-3-5 0-2 0-3 1-4 0 0 1-1 2-2 1 0 2 0 3 0 1 0 2 0 3 1 37 22 66 38 86 48 74 33 150 42 228 25 37-7 74-20 112-38z m59-33c2 3 3 10 1 20-2 10-4 20-8 29-7 16-15 28-24 35-4 3-6 4-8 3-2-1-2-3 0-7 4-8 8-20 13-35 4-14 5-24 2-28-1-1-3-2-5-3-2-1-4-1-7-2-4 0-6 0-9 0-2-1-6-1-10 0-4 0-7 0-9 0-2 0-5 1-9 1-4 0-6 1-6 1-1 0-3 0-4 0-1 0-2 0-3 0-1 0-2 0-2 1-1 0-2 0-2-1l-3 0-1 0-1 0 0-1c-1-3 3-7 13-11 10-5 20-8 30-9 8-1 19-1 31 0 11 1 19 3 21 7z m-112-127c0 6 1 12 4 19 2 6 5 11 9 16 3 5 7 9 10 13 4 4 7 7 10 9l4 4-65 64c-8-7-15-15-23-22-7-7-13-13-16-17l-6-5c-2-3-4-6-7-10-7 11-17 21-28 29-11 9-23 15-36 19-13 3-27 6-40 6-14 1-27-1-40-6-12-4-23-11-33-19-10-7-18-18-24-32-6-13-9-29-9-46 0-16 3-31 8-44 6-14 12-25 21-34 8-8 18-16 30-23 12-7 24-13 35-17 12-3 24-7 37-9 14-3 25-5 35-6 9-1 18-1 28-2l0-36c0-12-2-21-6-28-6-10-18-15-35-15-1 0-2 0-4 1-2 0-6 1-12 3-6 2-11 5-16 8-5 4-10 10-16 17-6 8-10 17-14 28l-84-8c0-11 3-23 7-34 4-11 10-22 19-32 8-10 19-19 31-27 12-8 26-14 43-19 17-5 35-7 54-7 19 0 37 2 52 7 16 5 28 11 37 18 9 7 17 15 23 23 6 9 11 17 13 25 3 8 4 15 4 21z m-192 6c0 17 6 29 20 38 12 9 26 11 39 7 16-5 27-17 33-36 3-8 4-18 4-28l0-47c-11 1-22 2-32 4-10 2-20 5-30 9-11 5-19 12-25 21-6 9-9 20-9 32z"/>
    </symbol>

    <symbol id="tfr-icon-apple" viewBox="0 0 512 512">
      <path d="m453 347c-8 24-19 48-35 72-25 37-49 56-74 56-9 0-22-3-40-10-16-6-30-9-43-9-11 0-25 3-40 10-16 6-28 9-38 9-29 0-58-24-86-74-28-49-42-97-42-143 0-44 11-79 32-107 21-28 49-41 81-41 14 0 31 3 51 8 20 6 33 9 39 9 9 0 22-3 41-10 20-6 36-10 50-10 22 0 43 7 60 19 10 7 20 16 30 29-15 12-26 24-32 33-13 18-19 38-19 59 0 24 7 45 20 64 13 19 28 31 45 36z m-108-335c0 12-2 25-8 39-6 14-14 27-26 39-11 11-21 17-31 21-7 2-17 4-30 5 1-29 8-53 22-74 14-20 38-34 72-42 0 1 0 2 0 3 1 2 1 3 1 3 0 1 0 2 0 3 0 1 0 2 0 3z"/>
    </symbol>

    <symbol id="tfr-icon-android" viewBox="0 0 512 512">
      <path d="m196 138c3 0 5-1 8-3 2-2 3-5 3-8 0-3-1-6-3-8-3-2-5-3-8-3-3 0-6 1-8 3-2 2-3 5-3 8 0 3 1 6 3 8 2 2 5 3 8 3z m120 0c3 0 6-1 8-3 2-2 3-5 3-8 0-3-1-6-3-8-2-2-5-3-8-3-3 0-5 1-8 3-2 2-3 5-3 8 0 3 1 6 3 8 3 2 5 3 8 3z m-232 53c8 0 15 2 21 8 6 6 8 13 8 21l0 123c0 8-2 15-8 20-6 6-13 9-21 9-8 0-15-3-21-9-5-5-8-12-8-20l0-123c0-8 3-15 8-21 6-6 13-8 21-8z m303 5l0 190c0 9-3 16-9 23-6 6-13 9-22 9l-21 0 0 65c0 8-3 15-9 20-6 6-13 9-21 9-8 0-15-3-21-9-5-5-8-12-8-20l0-65-40 0 0 65c0 8-3 15-8 20-6 6-13 9-21 9-8 0-15-3-21-9-5-5-8-12-8-20l-1-65-21 0c-8 0-16-3-22-9-6-7-9-14-9-23l0-190z m-66-116c20 11 37 25 49 44 12 19 18 39 18 62l-264 0c0-23 6-43 18-62 12-19 29-33 49-44l-20-37c-1-3-1-5 1-6 3-1 5 0 6 2l21 38c18-8 37-12 57-12 20 0 39 4 57 12l21-38c1-2 3-3 6-2 2 1 2 3 1 6z m136 140l0 123c0 8-3 15-8 20-6 6-13 9-21 9-8 0-15-3-21-9-6-5-8-12-8-20l0-123c0-8 2-15 8-21 6-6 13-8 21-8 8 0 15 2 21 8 5 6 8 13 8 21z"/>
    </symbol>

    <symbol id="tfr-icon-facebook" viewBox="0 0 512 512">
      <path d="m195 115c0 11 0 63 0 63l-47 0l0 78l47 0l0 230l95 0l0-230l65 0c0 0 6-37 8-78c-8 0-72 0-72 0c0 0 0-45 0-53c0-8 10-19 21-19c10 0 31 0 52 0c0-10 0-47 0-80c-27 0-58 0-71 0c-100 0-98 77-98 89z"/>
    </symbol>

    <symbol id="tfr-icon-facebook-alt" viewBox="0 0 512 512">
      <path d="m486 102c0-40-36-76-76-76l-308 0c-40 0-76 36-76 76l0 308c0 40 36 76 76 76l154 0l0-174l-56 0l0-76l56 0l0-30c0-52 39-98 86-98l62 0l0 76l-62 0c-6 0-14 9-14 21l0 31l76 0l0 76l-76 0l0 174l82 0c40 0 76-36 76-76z"/>
    </symbol>

    <symbol id="tfr-icon-twitter" viewBox="0 0 512 512">
      <path d="m370 371l-114 0c-16 0-29-5-40-16c-11-12-17-25-17-41l0-40l162 0c15 0 28-6 38-16c11-11 16-23 16-38c0-14-5-27-16-37c-10-11-23-16-38-16l-162 0l0-84c0-16-5-29-16-40c-12-12-25-17-41-17c-16 0-30 5-41 16c-11 11-17 25-17 41l0 231c0 48 17 88 51 122c33 34 74 50 121 50l114 0c16 0 29-5 41-17c11-11 17-24 17-40c0-16-6-30-17-41c-12-11-25-17-41-17z"/>
    </symbol>

    <symbol id="tfr-icon-twitter-alt" viewBox="0 0 512 512">
      <path d="m434 238c26-2 44-13 50-29c-9 5-38 12-54 6c-1-4-2-8-2-11c-13-45-54-81-98-76c3-2 7-3 11-4c4-2 33-7 28-17c-4-8-38 7-45 9c9-3 23-9 25-19c-13 2-26 8-36 17c3-4 6-8 7-13c-35 22-56 67-73 111c-13-13-24-23-34-28c-29-16-64-32-119-52c-1 18 9 42 40 58c-7-1-19 1-29 3c4 21 17 38 52 46c-16 1-24 5-32 13c8 14 25 31 57 27c-35 16-14 44 15 40c-50 50-127 47-171 4c116 158 368 94 405-59c29 1 45-9 55-20c-16 2-39 0-52-6z"/>
    </symbol>

    <symbol id="tfr-icon-instagram" viewBox="0 0 512 512">
      <path d="m426 407l0-185-39 0c4 12 6 25 6 38 0 24-6 46-18 66-13 20-29 36-50 48-21 12-44 18-69 18-37 0-69-13-96-39-27-26-40-57-40-93 0-13 2-26 6-38l-41 0 0 185c0 5 2 10 5 13 4 3 8 5 13 5l305 0c5 0 9-2 13-5 3-3 5-8 5-13z m-81-152c0-23-9-44-26-60-18-17-38-25-63-25-24 0-45 8-62 25-17 16-26 37-26 60 0 24 9 44 26 61 17 16 38 25 62 25 25 0 45-9 63-25 17-17 26-37 26-61z m81-103l0-47c0-5-2-10-6-14-4-4-8-6-14-6l-50 0c-5 0-10 2-14 6-4 4-5 9-5 14l0 47c0 6 1 10 5 14 4 4 9 6 14 6l50 0c6 0 10-2 14-6 4-4 6-8 6-14z m49-59l0 326c0 16-5 29-16 40-11 11-24 16-40 16l-326 0c-16 0-29-5-40-16-11-11-16-24-16-40l0-326c0-16 5-29 16-40 11-11 24-16 40-16l326 0c16 0 29 5 40 16 11 11 16 24 16 40z"/>
    </symbol>

    <symbol id="tfr-icon-linkedin" viewBox="0 0 512 512">
      <path d="m486 306l0 170l-98 0l0-159c0-40-15-67-50-67c-28 0-44 18-51 36c-3 7-3 15-3 24l0 166l-99 0c0 0 1-269 0-297l99 0l0 42c-1 0-1 1-1 1l1 0l0-1c13-20 36-49 89-49c65 0 113 43 113 134z m-404-270c-34 0-56 22-56 51c0 29 21 52 54 52l1 0c34 0 56-23 56-52c-1-29-22-51-55-51z m-51 440l99 0l0-297l-99 0z"/>
    </symbol>

    <symbol id="tfr-icon-linkedin-alt" viewBox="0 0 512 512">
      <path d="m450 29l-393 0c-19 0-34 14-34 33l0 394c0 19 15 34 34 34l393 0c19 0 34-15 34-34l0-394c0-19-15-33-34-33z m-287 385l-70 0l0-208l70 0z m-35-236l0 0c-24 0-39-16-39-36c0-20 16-36 39-36c24 0 39 16 39 36c0 20-15 36-39 36z m286 236l-70 0l0-111c0-28-10-47-35-47c-19 0-31 13-36 25c-2 5-2 11-2 17l0 116l-70 0c0 0 1-188 0-208l70 0l0 30c9-14 26-35 63-35c45 0 80 30 80 94z m-143-177c0-1 0-1 0-1l0 1z"/>
    </symbol>

    <symbol id="tfr-icon-youtube" viewBox="0 0 512 512">
      <path d="m389 363l-25 0l0-15c0-7 5-12 12-12l1 0c7 0 12 5 12 12z m-95-32c-6 0-12 4-12 10l0 71c0 5 6 10 12 10c6 0 12-5 12-10l0-71c0-6-6-10-12-10z m154-40l0 136c0 33-28 59-63 59l-258 0c-35 0-63-26-63-59l0-136c0-32 28-59 63-59l258 0c35 0 63 27 63 59z m-304 151l0-143l32 0l0-21l-85-1l0 21l26 0l0 144z m96-122l-27 0l0 76c0 12 1 17 0 19c-2 6-12 12-15 1c-1-2 0-8 0-19l-1-77l-26 0l0 76c0 11 0 20 0 24c1 7 0 15 7 20c12 8 35-2 41-14l0 16l21 0l0-122z m85 88l0-64c0-24-18-39-42-19l0-47l-27 0l0 163l22 0l2-11c28 26 46 8 45-22z m84-9l-20 0c0 1 0 2 0 3l0 11c0 6-5 11-11 11l-4 0c-6 0-11-5-11-11l0-29l46 0l0-17c0-13 0-26-1-33c-4-23-36-26-52-15c-5 4-9 9-11 15c-2 7-3 16-3 27l0 38c0 63 76 54 67 0z m-103-206c2 4 4 6 7 8c3 2 6 3 11 3c4 0 7-1 10-3c3-2 5-5 7-9l0 10l30 0l0-127l-24 0l0 99c0 5-4 10-10 10c-5 0-9-5-9-10l0-99l-25 0l0 86c0 11 0 18 1 22c0 3 1 7 2 10z m-90-71c0-12 1-22 3-29c2-7 6-12 11-16c5-4 12-6 20-6c7 0 13 1 18 4c5 2 9 6 11 10c3 4 5 9 6 13c1 5 1 12 1 21l0 32c0 12 0 20-1 26c-1 5-3 10-6 15c-3 5-7 8-11 11c-5 2-10 3-16 3c-7 0-13-1-18-3c-4-2-8-5-11-9c-2-4-4-8-5-14c-1-5-2-14-2-25l0-33z m23 50c0 7 6 13 12 13c7 0 12-6 12-13l0-67c0-8-5-13-12-13c-6 0-12 5-12 13z m-82 34l28 0l0-97l33-83l-30 0l-18 62l-18-62l-30 0l35 83z"/>
    </symbol>

    <symbol id="tfr-icon-youtube-alt" viewBox="0 0 512 512">
      <path d="m486 166c0-38-30-69-68-69l-324 0c-38 0-68 31-68 69l0 185c0 38 30 69 68 69l324 0c38 0 68-31 68-69z m-276 171l0-174l132 87z"/>
    </symbol>

</svg>
