<?xml version="1.0" encoding="utf-8"?>
<!-- Generator: Adobe Illustrator 24.0.3, SVG Export Plug-In . SVG Version: 6.00 Build 0)  -->
<svg version="1.1" id="Layer_1" xmlns="http://www.w3.org/2000/svg" xmlns:xlink="http://www.w3.org/1999/xlink" x="0px" y="0px"
     viewBox="0 0 272.7 208.9" width="18px" style="width:35px;height:auto;">
<style type="text/css">
	.st0{fill:#F0F2F6;}
</style>
    <g id="Layer_1_1_">
	<g>
		<path class="st0" d="M268.9,40.2L233.4,4c-3.3-3.4-8.3-4.4-12.6-2.6L7.6,90.2c-4.3,1.8-7.1,6-7.1,10.6v91.6
			c0,6.3,5,11.4,11.3,11.5l215.8,4.5c0.3,0,0.6,0,0.8,0l33-1.7c6.1-0.3,10.9-5.4,10.9-11.5V48.3C272.2,45.3,271,42.4,268.9,40.2z
			 M190.4,168.9c0,6.1-4.8,11.1-10.9,11.4l-158.2,6.6c-6.5,0.3-11.9-4.9-11.9-11.4v-63c0-4.8,3-9.1,7.5-10.7l158.2-56.9
			c7.4-2.7,15.2,2.8,15.2,10.7V168.9z"/>
        <path class="st0" d="M227.8,208.9c-0.1,0-0.2,0-0.3,0l-215.8-4.5c-6.5-0.1-11.7-5.5-11.7-12v-91.6c0-4.9,2.9-9.2,7.4-11.1
			L220.6,0.9c4.6-1.9,9.7-0.9,13.2,2.7l35.6,36.3c2.2,2.3,3.4,5.2,3.4,8.4v146.9c0,6.4-5,11.6-11.4,12l-33,1.7
			C228.2,208.9,228,208.9,227.8,208.9z M225.2,1c-1.4,0-2.9,0.3-4.2,0.9L7.8,90.7C3.7,92.4,1,96.4,1,100.8v91.6
			c0,5.9,4.8,10.9,10.8,11l215.8,4.5c0.3,0,0.5,0,0.8,0l33-1.7c5.9-0.3,10.4-5.1,10.4-11V48.3c0-2.9-1.1-5.6-3.1-7.7L233,4.3
			C230.9,2.1,228.1,1,225.2,1z M20.8,187.4c-3.1,0-6-1.2-8.2-3.3c-2.4-2.3-3.7-5.3-3.7-8.6v-63c0-5,3.2-9.5,7.9-11.2L175,44.4
			c3.7-1.3,7.6-0.8,10.9,1.5c3.2,2.2,5.1,5.8,5.1,9.7v113.4c0,6.4-5,11.6-11.4,11.9l-158.2,6.6C21.1,187.4,21,187.4,20.8,187.4z
			 M179.1,44.7c-1.2,0-2.5,0.2-3.7,0.7L17.1,102.2c-4.3,1.6-7.2,5.7-7.2,10.2v63c0,3,1.2,5.8,3.3,7.9s5,3.1,8,3l158.2-6.6
			c5.9-0.2,10.4-5,10.4-10.9V55.5c0-3.6-1.7-6.8-4.6-8.9C183.4,45.3,181.3,44.7,179.1,44.7z"/>
	</g>
</g>
    <g id="Layer_2_1_">
	<g>
		<path class="st0" d="M34.2,162.7c2.8,3.4,6.4,5.2,10.4,4.8c3.8-0.4,7.4-2.7,10.4-6.4c4.8-5.8,7.9-15,7.9-25c0-6.3-1.3-11.8-3.4-16
			c-0.7-1.4-1.5-2.7-2.5-3.8c-3.3-4-7.7-5.8-12.5-4.4c-3.1,0.9-5.9,3-8.3,6c-1,1.2-3.5,2.5-2.7,4c5.1,9.7-5.3,13.3-5.3,21.1
			C28.3,151.1,30.5,158.2,34.2,162.7z"/>
        <path class="st0" d="M43.5,167.7c-3.5,0-6.7-1.7-9.4-4.9l0,0c-3.8-4.6-6-11.8-6-19.9c0-3.1,1.7-5.7,3.4-8.1
			c2.5-3.7,5-7.2,1.9-12.9c-0.6-1.1,0.6-2.2,1.6-3.1c0.4-0.4,0.8-0.7,1.1-1.1c2.5-3.1,5.4-5.2,8.4-6.1c4.6-1.3,9.1,0.2,12.6,4.4
			c0.9,1.1,1.8,2.4,2.5,3.8c2.2,4.4,3.4,9.9,3.4,16.1c0,9.6-3,19-8,25.1c-3.1,3.8-6.7,6.1-10.5,6.4
			C44.2,167.6,43.8,167.7,43.5,167.7z M34.3,162.6c2.9,3.5,6.5,5.2,10.3,4.8c3.7-0.4,7.2-2.6,10.3-6.4c5-6.1,7.9-15.4,7.9-24.9
			c0-6.1-1.2-11.6-3.4-15.9c-0.7-1.4-1.5-2.7-2.5-3.8c-3.4-4.1-7.8-5.7-12.3-4.3c-2.9,0.9-5.8,2.9-8.3,6c-0.3,0.3-0.7,0.7-1.1,1.1
			c-1,0.9-2.1,1.8-1.5,2.8c3.1,5.8,0.5,9.6-1.9,13.2c-1.6,2.4-3.4,4.9-3.4,7.9C28.4,150.9,30.5,158,34.3,162.6L34.3,162.6z"/>
	</g>

        <image style="display:none;overflow:visible;enable-background:new    ;" width="150" height="238" xlink:href="D4D04D2942B8CFAB.png"  transform="matrix(0.232 0 0 0.232 28.2455 111.8633)">
	</image>
        <g>
		<path class="st0" d="M98.9,153.2c4.4,4.9,10.3,7.5,17,6.8c6.5-0.7,12.6-4.3,17.5-9.8c6.7-7.5,11.1-18.5,11.1-30.4
			c0-7.4-1.8-13.9-4.7-18.8c-0.9-1.5-1.9-2.8-2.9-4c-5.3-5.9-12.9-8.4-21-6c-5.1,1.5-9.7,4.7-13.6,9.1c-1.2,1.3-4.3,2.8-3.3,4.2
			c8.2,11.4-7.9,16.7-7.9,26.1C91.2,139.8,94.1,147.9,98.9,153.2z"/>
            <path class="st0" d="M113.9,160.3c-5.7,0-11-2.4-15-7l0,0c-5-5.6-7.8-13.7-7.8-22.9c0-3.8,2.6-7,5.2-10.1c3.9-4.7,7.6-9.2,2.8-16
			c-0.8-1.1,0.6-2.2,1.9-3.2c0.5-0.4,1.1-0.8,1.4-1.2c4-4.5,8.7-7.7,13.6-9.1c7.9-2.3,15.6-0.1,21.1,6.1c1.1,1.2,2.1,2.6,3,4
			c3.1,5.2,4.7,11.7,4.7,18.9c0,11.4-4.1,22.5-11.2,30.5c-5.1,5.7-11.3,9.2-17.6,9.9C115.3,160.2,114.6,160.3,113.9,160.3z
			 M99,153.1c4.5,5,10.5,7.5,16.9,6.8c6.2-0.6,12.4-4.1,17.4-9.8c7.1-7.9,11.1-18.9,11.1-30.3c0-7.1-1.6-13.6-4.7-18.8
			c-0.9-1.4-1.9-2.8-2.9-4c-5.5-6.1-13.1-8.2-20.8-6c-4.9,1.4-9.5,4.5-13.5,9c-0.4,0.4-0.9,0.8-1.4,1.2c-1.2,0.9-2.5,1.9-1.8,2.8
			c4.9,6.9,1,11.7-2.8,16.3c-2.5,3-5.1,6.2-5.1,9.9C91.3,139.5,94.1,147.6,99,153.1L99,153.1z"/>
	</g>

        <image style="display:none;overflow:visible;enable-background:new    ;" width="225" height="296" xlink:href="D4D04D2942B8CFA9.png"  transform="matrix(0.2376 0 0 0.2376 91.1591 90.0313)">
	</image>
</g>
</svg>
